<?xml version="1.0" encoding="iso-8859-1"?>
<!-- Generator: Adobe Illustrator 19.0.0, SVG Export Plug-In . SVG Version: 6.00 Build 0)  -->
<svg version="1.1" id="Capa_1" xmlns="http://www.w3.org/2000/svg" xmlns:xlink="http://www.w3.org/1999/xlink" x="0px" y="0px"
	 viewBox="0 0 448 448" style="enable-background:new 0 0 448 448;" xml:space="preserve">
<path style="fill:#F9F9FA;" d="M400,360H48c-13.904,0-24-10.096-24-24V88h400v248C424,349.904,413.904,360,400,360z"/>
<path style="fill:#787878;" d="M424,88H24V32C24,18.096,34.096,8,48,8h352c13.904,0,24,10.096,24,24V88z"/>
<rect x="72" y="136" style="fill:#EB7A25;" width="304" height="32"/>
<rect x="72" y="216" style="fill:#AAAAAA;" width="128.16" height="80"/>
<path style="fill:#5886C5;" d="M360,256c0-30.875-25.125-56-56-56s-56,25.125-56,56c0,15.199,6.133,28.966,16,39.067v133.62l40-40
	l40,40v-133.62C353.867,284.966,360,271.199,360,256z"/>
<g>
	<path style="fill:#010101;" d="M400,0H48C30.4,0,16,14.399,16,32v304c0,17.6,14.4,32,32,32h208v80l48-48l48,48v-80h48
		c17.6,0,32-14.4,32-32V32C432,14.399,417.6,0,400,0z M336,409.372l-20.686-20.686L304,377.372l-11.314,11.314L272,409.372
		c0-57.518,0-43.339,0-98.249c9.446,5.498,20.283,8.877,32,8.877s22.554-3.379,32-8.877V409.372z M304,304
		c-26.466,0-48-21.534-48-48c0-26.468,21.534-48,48-48s48,21.532,48,48C352,282.466,330.466,304,304,304z M416,336
		c0,9.6-6.4,16-16,16h-48v-54.072c9.838-11.254,16-25.806,16-41.928c0-35.346-28.654-64-64-64s-64,28.654-64,64
		c0,16.121,6.162,30.674,16,41.928V352H48c-9.6,0-16-6.4-16-16V96h384V336z M416,80H32V32c0-9.601,6.4-16,16-16h352
		c9.6,0,16,6.399,16,16V80z"/>
	<circle style="fill:#010101;" cx="192" cy="48" r="16"/>
	<circle style="fill:#010101;" cx="128" cy="48" r="16"/>
	<circle style="fill:#010101;" cx="64" cy="48" r="16"/>
	<path style="fill:#010101;" d="M384,128H64v48h320V128z M368,160H80v-16h288V160z"/>
	<path style="fill:#010101;" d="M208,208H64v96h144V208z M192,288H80v-64h104h8V288z"/>
	<polygon style="fill:#010101;" points="259.988,239.978 287.187,259.74 276.799,291.718 304,271.956 331.201,291.718 
		320.813,259.74 348.012,239.978 314.39,239.975 304,208 293.61,239.975 	"/>
</g>
<g>
</g>
<g>
</g>
<g>
</g>
<g>
</g>
<g>
</g>
<g>
</g>
<g>
</g>
<g>
</g>
<g>
</g>
<g>
</g>
<g>
</g>
<g>
</g>
<g>
</g>
<g>
</g>
<g>
</g>
</svg>
